<svg width="937" height="73" viewBox="0 0 937 73" fill="none" xmlns="http://www.w3.org/2000/svg">
<path d="M0 20C0 8.95432 8.95431 0 20 0H28.0903C39.136 0 48.0903 8.95431 48.0903 20V72.0284H0V20Z" fill="#FFFCF2"/>
<ellipse cx="24.0452" cy="49.955" rx="24.0452" ry="22.0732" fill="#D9D9D9"/>
<rect x="17.7173" width="13.9209" height="49.9552" rx="6.96044" fill="#CD4B2B"/>
<rect x="21.5142" y="6.9707" width="5.06214" height="36.0142" rx="2.53107" fill="white"/>
<path d="M283.484 20C283.484 8.95432 292.439 0 303.484 0H311.575C322.62 0 331.575 8.95431 331.575 20V72.0284H283.484V20Z" fill="#FFFCF2"/>
<ellipse cx="307.53" cy="49.955" rx="24.0452" ry="22.0732" fill="#D9D9D9"/>
<rect x="301.202" width="13.9209" height="49.9552" rx="6.96044" fill="#CD4B2B"/>
<rect x="304.999" y="6.9707" width="5.06214" height="36.0142" rx="2.53107" fill="white"/>
<path d="M350.556 20C350.556 8.95432 359.51 0 370.556 0H378.646C389.692 0 398.646 8.95431 398.646 20V72.0284H350.556V20Z" fill="#FFFCF2"/>
<ellipse cx="374.601" cy="49.955" rx="24.0452" ry="22.0732" fill="#D9D9D9"/>
<rect x="368.273" width="13.9209" height="49.9552" rx="6.96044" fill="#CD4B2B"/>
<rect x="372.07" y="6.9707" width="5.06214" height="36.0142" rx="2.53107" fill="white"/>
<path d="M417.626 20C417.626 8.95432 426.581 0 437.626 0H445.717C456.762 0 465.717 8.95431 465.717 20V72.0284H417.626V20Z" fill="#FFFCF2"/>
<ellipse cx="441.672" cy="49.955" rx="24.0452" ry="22.0732" fill="#D9D9D9"/>
<rect x="435.344" width="13.9209" height="49.9552" rx="6.96044" fill="#CD4B2B"/>
<rect x="439.141" y="6.9707" width="5.06214" height="36.0142" rx="2.53107" fill="white"/>
<path d="M537.853 20C537.853 8.95432 546.807 0 557.853 0H565.943C576.989 0 585.943 8.95431 585.943 20V72.0284H537.853V20Z" fill="#FFFCF2"/>
<ellipse cx="561.898" cy="49.955" rx="24.0452" ry="22.0732" fill="#D9D9D9"/>
<rect x="555.57" width="13.9209" height="49.9552" rx="6.96044" fill="#CD4B2B"/>
<rect x="559.367" y="6.9707" width="5.06214" height="36.0142" rx="2.53107" fill="white"/>
<path d="M479.636 20C479.636 8.95432 488.591 0 499.636 0H507.727C518.772 0 527.727 8.95431 527.727 20V72.0284H479.636V20Z" fill="#FFFCF2"/>
<ellipse cx="503.681" cy="49.955" rx="24.0452" ry="22.0732" fill="#D9D9D9"/>
<rect x="497.354" width="13.9209" height="49.9552" rx="6.96044" fill="#CD4B2B"/>
<rect x="501.15" y="6.9707" width="5.06214" height="36.0142" rx="2.53107" fill="white"/>
<path d="M479.636 20C479.636 8.95432 488.591 0 499.636 0H507.727C518.772 0 527.727 8.95431 527.727 20V72.0284H479.636V20Z" fill="#FFFCF2"/>
<ellipse cx="503.681" cy="49.955" rx="24.0452" ry="22.0732" fill="#D9D9D9"/>
<rect x="497.354" width="13.9209" height="49.9552" rx="6.96044" fill="#CD4B2B"/>
<rect x="501.15" y="6.9707" width="5.06214" height="36.0142" rx="2.53107" fill="white"/>
<path d="M72.1318 20C72.1318 8.95432 81.0861 0 92.1318 0H100.222C111.268 0 120.222 8.95431 120.222 20V72.0284H72.1318V20Z" fill="#FFFCF2"/>
<ellipse cx="96.177" cy="49.955" rx="24.0452" ry="22.0732" fill="#D9D9D9"/>
<rect x="89.8491" width="13.9209" height="49.9552" rx="6.96044" fill="#CD4B2B"/>
<rect x="93.646" y="6.9707" width="5.06214" height="36.0142" rx="2.53107" fill="white"/>
<path d="M144.272 20C144.272 8.95432 153.227 0 164.272 0H172.363C183.408 0 192.363 8.95431 192.363 20V72.0284H144.272V20Z" fill="#FFFCF2"/>
<ellipse cx="168.318" cy="49.955" rx="24.0452" ry="22.0732" fill="#D9D9D9"/>
<rect x="161.99" width="13.9209" height="49.9552" rx="6.96044" fill="#CD4B2B"/>
<rect x="165.787" y="6.9707" width="5.06214" height="36.0142" rx="2.53107" fill="white"/>
<path d="M144.272 20C144.272 8.95432 153.227 0 164.272 0H172.363C183.408 0 192.363 8.95431 192.363 20V72.0284H144.272V20Z" fill="#FFFCF2"/>
<ellipse cx="168.318" cy="49.955" rx="24.0452" ry="22.0732" fill="#D9D9D9"/>
<rect x="161.99" width="13.9209" height="49.9552" rx="6.96044" fill="#CD4B2B"/>
<rect x="165.787" y="6.9707" width="5.06214" height="36.0142" rx="2.53107" fill="white"/>
<path d="M216.405 20C216.405 8.95432 225.359 0 236.405 0H244.495C255.541 0 264.495 8.95431 264.495 20V72.0284H216.405V20Z" fill="#FFFCF2"/>
<ellipse cx="240.45" cy="49.955" rx="24.0452" ry="22.0732" fill="#D9D9D9"/>
<rect x="234.122" width="13.9209" height="49.9552" rx="6.96044" fill="#CD4B2B"/>
<rect x="237.919" y="6.9707" width="5.06214" height="36.0142" rx="2.53107" fill="white"/>
<path d="M604.924 20C604.924 8.95432 613.878 0 624.924 0H633.014C644.06 0 653.014 8.95431 653.014 20V72.0284H604.924V20Z" fill="#FFFCF2"/>
<ellipse cx="628.969" cy="49.955" rx="24.0452" ry="22.0732" fill="#D9D9D9"/>
<rect x="622.641" width="13.9209" height="49.9552" rx="6.96044" fill="#CD4B2B"/>
<rect x="626.438" y="6.9707" width="5.06214" height="36.0142" rx="2.53107" fill="white"/>
<path d="M888.408 20C888.408 8.95432 897.363 0 908.408 0H916.499C927.544 0 936.499 8.95431 936.499 20V72.0284H888.408V20Z" fill="#FFFCF2"/>
<ellipse cx="912.453" cy="49.955" rx="24.0452" ry="22.0732" fill="#D9D9D9"/>
<rect x="906.125" width="13.9209" height="49.9552" rx="6.96044" fill="#CD4B2B"/>
<rect x="909.922" y="6.9707" width="5.06214" height="36.0142" rx="2.53107" fill="white"/>
<path d="M677.064 20C677.064 8.95432 686.018 0 697.064 0H705.154C716.2 0 725.154 8.95431 725.154 20V72.0284H677.064V20Z" fill="#FFFCF2"/>
<ellipse cx="701.109" cy="49.955" rx="24.0452" ry="22.0732" fill="#D9D9D9"/>
<rect x="694.781" width="13.9209" height="49.9552" rx="6.96044" fill="#CD4B2B"/>
<rect x="698.578" y="6.9707" width="5.06214" height="36.0142" rx="2.53107" fill="white"/>
<path d="M749.196 20C749.196 8.95432 758.151 0 769.196 0H777.287C788.332 0 797.287 8.95431 797.287 20V72.0284H749.196V20Z" fill="#FFFCF2"/>
<ellipse cx="773.241" cy="49.955" rx="24.0452" ry="22.0732" fill="#D9D9D9"/>
<rect x="766.914" width="13.9209" height="49.9552" rx="6.96044" fill="#CD4B2B"/>
<rect x="770.71" y="6.9707" width="5.06214" height="36.0142" rx="2.53107" fill="white"/>
<path d="M749.196 20C749.196 8.95432 758.151 0 769.196 0H777.287C788.332 0 797.287 8.95431 797.287 20V72.0284H749.196V20Z" fill="#FFFCF2"/>
<ellipse cx="773.241" cy="49.955" rx="24.0452" ry="22.0732" fill="#D9D9D9"/>
<rect x="766.914" width="13.9209" height="49.9552" rx="6.96044" fill="#CD4B2B"/>
<rect x="770.71" y="6.9707" width="5.06214" height="36.0142" rx="2.53107" fill="white"/>
<path d="M821.337 20C821.337 8.95432 830.291 0 841.337 0H849.427C860.473 0 869.427 8.95431 869.427 20V72.0284H821.337V20Z" fill="#FFFCF2"/>
<ellipse cx="845.382" cy="49.955" rx="24.0452" ry="22.0732" fill="#D9D9D9"/>
<rect x="839.054" width="13.9209" height="49.9552" rx="6.96044" fill="#CD4B2B"/>
<rect x="842.851" y="6.9707" width="5.06214" height="36.0142" rx="2.53107" fill="white"/>
</svg>
