<svg width="409" height="342" viewBox="0 0 409 342" fill="none" xmlns="http://www.w3.org/2000/svg">
<path d="M80.1172 203.088H400.586L349.348 331.648H11.645L80.1172 203.088Z" fill="#FFFCF2"/>
<rect x="76.6646" y="4" width="327.374" height="197.882" fill="#FFFCF2" stroke="#CD4B2B" stroke-width="8"/>
<rect x="100.886" y="22.6318" width="278" height="154.098" fill="#FFFCF2" stroke="#CD4B2B" stroke-width="8"/>
<line x1="76.1761" y1="202.208" x2="3.51173" y2="335.426" stroke="#CD4B2B" stroke-width="8"/>
<path d="M404.954 205.459L349.348 339.566" stroke="#CD4B2B" stroke-width="8"/>
<line x1="0.0952111" y1="329.512" x2="352.238" y2="337.896" stroke="#CD4B2B" stroke-width="8"/>
<line x1="95.7029" y1="207.864" x2="35.1492" y2="314.066" stroke="#CD4B2B" stroke-width="8"/>
<line x1="380.945" y1="213.111" x2="331.57" y2="323.039" stroke="#CD4B2B" stroke-width="8"/>
<path d="M36.4624 313.95L334.443 323.264" stroke="#CD4B2B" stroke-width="8"/>
<line x1="45.7604" y1="291.317" x2="343.871" y2="299.701" stroke="#CD4B2B" stroke-width="8"/>
<line x1="62.4811" y1="277.342" x2="353.139" y2="282" stroke="#CD4B2B" stroke-width="8"/>
<line x1="72.7427" y1="254.984" x2="361.536" y2="260.628" stroke="#CD4B2B" stroke-width="8"/>
<line x1="85.7588" y1="232.625" x2="371.758" y2="236.364" stroke="#CD4B2B" stroke-width="8"/>
<line x1="96.9248" y1="212.13" x2="382.924" y2="214.925" stroke="#CD4B2B" stroke-width="8"/>
<line x1="73.7446" y1="316.817" x2="124.982" y2="214.341" stroke="#CD4B2B" stroke-width="8"/>
<line x1="141.751" y1="316.817" x2="192.989" y2="214.341" stroke="#CD4B2B" stroke-width="8"/>
<line x1="167.836" y1="316.817" x2="219.074" y2="214.341" stroke="#CD4B2B" stroke-width="8"/>
<line x1="197.647" y1="316.817" x2="248.885" y2="214.341" stroke="#CD4B2B" stroke-width="8"/>
<line x1="222.8" y1="316.817" x2="274.037" y2="214.341" stroke="#CD4B2B" stroke-width="8"/>
<line x1="253.542" y1="316.817" x2="304.78" y2="214.341" stroke="#CD4B2B" stroke-width="8"/>
<line x1="281.49" y1="316.817" x2="332.728" y2="214.341" stroke="#CD4B2B" stroke-width="8"/>
<line x1="281.49" y1="316.817" x2="332.728" y2="214.341" stroke="#CD4B2B" stroke-width="8"/>
<line x1="303.849" y1="319.612" x2="355.086" y2="217.136" stroke="#CD4B2B" stroke-width="8"/>
<line x1="108.214" y1="316.817" x2="159.452" y2="214.341" stroke="#CD4B2B" stroke-width="8"/>
</svg>
