<svg width="68" height="64" viewBox="0 0 68 64" fill="none" xmlns="http://www.w3.org/2000/svg">
<path d="M21.5503 25.4235C21.5503 25.4162 21.5503 25.4089 21.5649 25.9908C21.5794 26.5726 21.6085 27.7437 22.1237 31.7609C22.6388 35.7782 23.6391 42.606 24.6042 49.7841" stroke="white" stroke-width="2" stroke-linecap="round" stroke-linejoin="round"/>
<path d="M19.6924 14.0391C19.4012 14.0391 18.4544 14.3046 17.7323 14.954C16.8024 15.7903 16.5457 17.2482 16.5596 18.5909C16.5698 19.5688 17.9022 20.1706 18.905 20.6747C20.1274 21.2892 21.8764 20.6397 23.2214 19.8349C23.7623 19.5112 24.0453 19.0008 24.2891 18.5404C24.8756 17.4329 24.371 15.7255 23.8754 14.7152C23.6707 14.2978 23.3114 14.0632 22.8884 13.8725C22.6264 13.7901 22.2681 13.7367 21.7646 13.7091C21.2611 13.6816 20.6233 13.6816 19.9661 13.6816" stroke="white" stroke-width="2" stroke-linecap="round" stroke-linejoin="round"/>
<path d="M38.8207 46.8601C38.8207 46.8436 38.7748 46.4492 38.2069 43.1855C37.7054 40.3041 36.6879 34.9499 36.1677 31.5727C35.461 26.985 35.6961 25.3749 35.879 24.7937C36.2094 23.7431 37.492 23.2363 38.6144 22.8062C39.2014 22.5812 40.707 22.5323 42.621 22.5422C43.662 22.5476 44.2095 23.2433 44.7073 23.9194C44.9428 24.2392 45.07 24.5625 45.6336 27.2068C46.1972 29.8512 47.1746 34.8197 47.7289 37.9847C48.2832 41.1498 48.3846 42.3607 48.4892 43.6084" stroke="white" stroke-width="2" stroke-linecap="round" stroke-linejoin="round"/>
<path d="M15.6062 4.13183C14.8469 4.40753 11.0332 6.30731 7.68424 9.60907C1.46492 15.7408 1.00711 23.4298 1 35.1411C0.995633 42.3403 5.93507 47.4253 12.6748 53.5344C17.5678 57.9695 24.3315 60.028 31.7111 61.3734C48.7866 64.4866 54.3513 59.9572 58.254 57.6508C61.1888 55.9164 63.13 49.7018 65.1083 39.8746C68.0888 25.0688 64.7096 20.48 62.1573 15.1348C59.0251 8.57536 52.7803 5.84141 47.4233 3.65397C38.758 0.115609 24.611 0.818408 18.8564 1.78151C18.2618 2.16736 17.7069 2.57518 17.0951 3.0367C16.4834 3.49821 15.8317 4.00106 14.4799 5.06189" stroke="white" stroke-width="2" stroke-linecap="round" stroke-linejoin="round"/>
<path d="M20.9092 26.7314C20.9092 26.8007 20.9284 28.6208 21.4354 33.1202C22.8789 39.4267 24.258 44.3616 24.9462 46.6799C25.24 47.7635 25.4214 48.6586 25.665 50.5136" stroke="white" stroke-width="4" stroke-linecap="round" stroke-linejoin="round"/>
<path d="M38.179 47.0787C38.222 46.2619 37.6681 41.6496 36.6667 38.2299C35.2094 33.2534 34.6723 28.1681 35.0298 26.34C35.3013 24.9515 36.862 24.1104 38.2409 23.4473C39.587 22.8 41.7907 22.9663 43.3071 23.5033C44.762 24.0186 45.062 26.2992 46.5922 32.7531C47.1304 35.3951 47.8017 39.0146 48.1718 41.023C48.5419 43.0314 48.5906 43.3189 48.6407 43.6725" stroke="white" stroke-width="4" stroke-linecap="round" stroke-linejoin="round"/>
</svg>
