<svg width="67" height="58" viewBox="0 0 67 58" fill="none" xmlns="http://www.w3.org/2000/svg">
<path d="M11.4067 5.2959C11.4067 5.31143 11.4067 5.32696 11.698 11.777C11.9893 18.227 12.5719 31.1111 12.9235 38.2586C13.275 45.4062 13.3778 46.4268 13.5427 47.1354C13.7076 47.8441 13.9314 48.2098 18.432 48.2895C22.9325 48.3692 31.7031 48.1518 38.2135 47.7726C44.7239 47.3934 48.7084 46.859 53.2906 46.3084" stroke="white" stroke-width="4" stroke-linecap="round" stroke-linejoin="round"/>
<path d="M11.9932 4.11432C12.1217 4.11432 19.0725 4.08165 31.6839 3.6999C37.4107 3.35081 41.7711 2.68628 44.5828 2.34369C47.3945 2.00109 48.5254 2.00055 49.6906 2" stroke="white" stroke-width="4" stroke-linecap="round" stroke-linejoin="round"/>
<path d="M49.6919 2C49.7112 3.15755 50.2826 8.39357 51.7289 17.0642C52.643 22.6613 53.9228 30.6886 54.6056 35.4745C55.2885 40.2603 55.3356 41.5616 55.3842 42.9022" stroke="white" stroke-width="4" stroke-linecap="round" stroke-linejoin="round"/>
<path d="M2 10.9785C2 11.1027 2.02088 16.5097 2.5117 27.0549C2.75455 32.2727 3.89996 37.1568 4.98858 41.3908C6.07719 45.6249 7.30825 49.045 8.04711 51.0856C8.78598 53.1261 8.99535 53.6836 9.46907 54.7479" stroke="white" stroke-width="4" stroke-linecap="round" stroke-linejoin="round"/>
<path d="M9.46875 54.748C9.49927 54.748 9.52979 54.748 14.821 54.8313C20.1122 54.9146 30.6632 55.0811 41.534 55.2527" stroke="white" stroke-width="4" stroke-linecap="round" stroke-linejoin="round"/>
<path d="M21.8086 15.5043C24.6952 15.0417 31.574 13.7618 34.2448 13.6465C35.3591 13.7479 37.4651 13.7803 40.0922 13.8058C41.1247 13.8644 41.5467 14.016 41.9814 14.1721" stroke="white" stroke-linecap="round" stroke-linejoin="round"/>
<path d="M22.5068 22.5847C22.9759 22.4809 26.0348 19.8469 28.3091 18.5048C30.2988 17.3307 30.1963 22.4448 30.8747 22.7855C33.5728 21.5883 36.6376 20.2998 38.4734 20.169C38.9451 20.3889 39.4522 20.8606 40.1175 21.569" stroke="white" stroke-linecap="round" stroke-linejoin="round"/>
<path d="M24.4805 30.6377H37.7002" stroke="white" stroke-linecap="round" stroke-linejoin="round"/>
<path d="M22.395 40.8867C22.4111 40.8867 22.4271 40.8867 24.0228 40.8757C25.6185 40.8647 28.7934 40.8428 31.6182 40.6205C34.443 40.3982 36.8216 39.9762 40.3318 39.3809" stroke="white" stroke-linecap="round" stroke-linejoin="round"/>
<path d="M43.2859 24.5481C43.2538 24.4849 43.528 24.1155 47.0799 20.7664C50.3411 17.7541 56.5638 12.0764 60.0504 8.95908C63.5369 5.84173 64.0986 5.45673 65.0002 5.00488" stroke="white" stroke-width="3" stroke-linecap="round" stroke-linejoin="round"/>
<path d="M40.6743 24.8086C40.6743 24.832 40.6743 26.186 40.8029 28.0456C40.9075 29.5587 44.2245 26.4875 44.8031 26.1494C43.8636 25.676 42.5504 24.8221 41.5352 24.5879C41.3757 24.8968 41.3573 25.6844 41.3384 26.4959" stroke="white" stroke-linecap="round" stroke-linejoin="round"/>
<path d="M41.6275 26.9566C41.6275 26.9324 41.6037 27.2722 41.5466 27.6271C41.5132 27.6298 41.4711 27.272 41.4928 26.9243C41.5145 26.5767 41.6013 26.2498 41.6907 25.9131" stroke="white" stroke-linecap="round" stroke-linejoin="round"/>
</svg>
